<svg xmlns="http://www.w3.org/2000/svg" xmlns:xlink="http://www.w3.org/1999/xlink" viewBox="0 0 200 53"><defs><style>.a{fill:#fff;stroke:#707070;}.b{clip-path:url(#a);}.c{fill:#00a0c6;}.c,.e,.i,.k,.m,.n,.o{fill-rule:evenodd;}.d{fill:#0480b7;}.e,.f{fill:#99cf16;}.g,.n{fill:#008837;}.h,.i{fill:#ff0;}.j,.k{fill:#f60;}.l,.m{fill:red;}.o,.p{fill:#052851;}</style><clipPath id="a"><rect class="a" width="200" height="53" transform="translate(55 15)"/></clipPath></defs><g class="b" transform="translate(-55 -15)"><g transform="translate(55 17.152)"><path class="c" d="M163.806,42.48h3.814v2.361A20.758,20.758,0,0,1,163.806,42.48Z"/><rect class="d" width="4.022" height="4.022" transform="translate(163.598 37.309)"/><path class="e" d="M168.768,42.48h4.022V46.5h-.1a20.679,20.679,0,0,1-3.922-1.154V42.48Z"/><rect class="f" width="4.022" height="4.022" transform="translate(168.768 37.309)"/><rect class="d" width="4.022" height="4.022" transform="translate(168.768 32.139)"/><rect class="g" width="4.022" height="4.022" transform="translate(173.937 42.48)"/><rect class="h" width="4.022" height="4.022" transform="translate(173.937 37.309)"/><rect class="d" width="4.022" height="4.022" transform="translate(173.937 32.139)"/><path class="i" d="M179.107,42.48h4.022v3.328a20.736,20.736,0,0,1-2.675.694h-1.346Z"/><rect class="j" width="4.022" height="4.022" transform="translate(179.107 37.309)"/><rect class="h" width="4.022" height="4.022" transform="translate(179.107 32.139)"/><rect class="d" width="4.022" height="4.022" transform="translate(179.107 26.968)"/><path class="k" d="M184.277,42.48H188.3v.76a20.728,20.728,0,0,1-4.021,2.148Z"/><rect class="l" width="4.021" height="4.022" transform="translate(184.277 37.309)"/><rect class="j" width="4.021" height="4.022" transform="translate(184.277 32.139)"/><rect class="f" width="4.021" height="4.022" transform="translate(184.277 26.968)"/><rect class="d" width="4.021" height="4.021" transform="translate(184.277 21.797)"/><path class="m" d="M189.447,37.309h4.021v.869a20.857,20.857,0,0,1-2.781,3.153h-1.24V37.309Z"/><rect class="l" width="4.021" height="4.022" transform="translate(189.447 32.139)"/><rect class="f" width="4.021" height="4.022" transform="translate(189.447 26.968)"/><rect class="d" width="4.021" height="4.021" transform="translate(189.447 21.797)"/><path class="m" d="M194.616,32.139h1.833a20.709,20.709,0,0,1-1.705,4.022h-.128V32.139Z"/><path class="n" d="M194.616,26.968h2.709a20.771,20.771,0,0,1-.562,4.022h-2.147Z"/><path class="c" d="M194.616,21.8H196.9a20.852,20.852,0,0,1,.442,4.021h-2.726Z"/><path class="o" d="M.244,11.16c-.061-1.223-.061-2.2-.061-3A14.4,14.4,0,0,0,.122,6.392C.061,5.9.061,5.536,0,5.291c4.952,0,7.458,2.384,7.458,7.153l.122,15.528a50.614,50.614,0,0,0,.367,6.664,9.581,9.581,0,0,0,1.406,4.34A5.393,5.393,0,0,0,12.41,41.3a15.27,15.27,0,0,0,5.258.734c1.039,0,1.956,0,2.812-.061.795,0,1.528,0,2.079-.061q1.009-.092,1.834-.183v.366a4.8,4.8,0,0,1-.428,2.018,5.509,5.509,0,0,1-1.406,1.956,9.1,9.1,0,0,1-2.384,1.406,8.661,8.661,0,0,1-3.484.611,27.235,27.235,0,0,1-8.07-1.039,9.772,9.772,0,0,1-5.013-3.362A14.076,14.076,0,0,1,.978,37.325,54.281,54.281,0,0,1,.244,27.6V11.16Zm65.291,33.5c.183.429.306.795.489,1.162s.306.734.428,1.039a8.174,8.174,0,0,1,.428,1.1,9.867,9.867,0,0,1-3.485.306,7.092,7.092,0,0,1-2.812-.856,5.045,5.045,0,0,1-2.262-2.69c-.244-.55-.672-1.712-1.345-3.362s-1.406-3.607-2.323-5.869H37.292c-.917,2.262-1.651,4.218-2.323,5.869s-1.1,2.812-1.345,3.362a5.315,5.315,0,0,1-2.262,2.69,7.1,7.1,0,0,1-2.812.856,9.876,9.876,0,0,1-3.484-.306,8.174,8.174,0,0,1,.428-1.1c.122-.306.244-.672.428-1.039.122-.367.306-.734.489-1.162.306-.734.795-2.018,1.528-3.79.672-1.773,1.528-3.852,2.446-6.174s1.956-4.769,3-7.336,2.018-5.013,2.934-7.336,1.712-4.4,2.446-6.174,1.223-3,1.528-3.729a9.57,9.57,0,0,1,1.467-2.751,7.079,7.079,0,0,1,1.467-1.528,4.126,4.126,0,0,1,1.467-.734,9.112,9.112,0,0,1,1.284-.122,10.971,10.971,0,0,1,1.345.122,4.454,4.454,0,0,1,1.406.734,8.954,8.954,0,0,1,1.528,1.528,11.418,11.418,0,0,1,1.406,2.751c.306.734.795,1.956,1.528,3.729.672,1.773,1.528,3.852,2.446,6.174s1.956,4.768,3,7.336,2.018,5.013,2.934,7.336,1.773,4.4,2.506,6.174c.671,1.773,1.161,3.057,1.466,3.79ZM52.331,29.439c-.795-2.018-1.59-4.035-2.384-5.991-.794-1.9-1.467-3.668-2.017-5.2-.734-1.773-1.406-3.485-1.956-5.136q-1.009,2.476-2.017,5.136c-.612,1.528-1.284,3.3-2.018,5.2-.734,1.956-1.528,3.974-2.323,5.991ZM83.02,48.7a19.439,19.439,0,0,1-5.563-.734,20.033,20.033,0,0,1-4.28-1.772,13.968,13.968,0,0,1-2.812-2.018,5.426,5.426,0,0,1-1.345-1.651l.184-.184a4.956,4.956,0,0,1,1.223-1.284,2.574,2.574,0,0,1,1.284-.366,4.124,4.124,0,0,1,.856.122,7.427,7.427,0,0,1,.856.305,6.048,6.048,0,0,1,.978.306,9.182,9.182,0,0,0,1.1.55,20.461,20.461,0,0,0,2.873.856,17.8,17.8,0,0,0,3.974.55h.672a11.676,11.676,0,0,0,3.852-.55,7.286,7.286,0,0,0,2.568-1.345,4.93,4.93,0,0,0,1.406-1.834,4.464,4.464,0,0,0,.428-1.9,4.413,4.413,0,0,0-.917-2.934,12.769,12.769,0,0,0-2.812-2.506,46.264,46.264,0,0,0-4.157-2.506c-1.589-.856-3.3-1.773-5.074-2.751a18.921,18.921,0,0,1-6.542-5.624,9.767,9.767,0,0,1-1.834-6.48,10.372,10.372,0,0,1,1.406-4.463,11.24,11.24,0,0,1,2.934-3.179A13.559,13.559,0,0,1,78.19,5.474a17.241,17.241,0,0,1,4.34-.55,19.375,19.375,0,0,1,6.542.978,25.08,25.08,0,0,1,4.768,2.14A16.344,16.344,0,0,1,97.692,11.1l-.122.183A5.613,5.613,0,0,1,96.347,12.5,2.2,2.2,0,0,1,95,12.933a4.1,4.1,0,0,1-1.651-.428,6.727,6.727,0,0,1-.978-.428c-.367-.122-.734-.245-1.162-.428a33.186,33.186,0,0,0-3.729-1.1,15.154,15.154,0,0,0-3.546-.306c-.55,0-1.1.061-1.712.122a7.8,7.8,0,0,0-1.712.428,4.412,4.412,0,0,0-1.467.856,3.134,3.134,0,0,0-.917,1.406,3.06,3.06,0,0,0,.794,3.24,16.233,16.233,0,0,0,3.546,2.751,46.32,46.32,0,0,0,4.952,2.629,46.143,46.143,0,0,1,5.074,3,19.427,19.427,0,0,1,4.952,4.708A12.941,12.941,0,0,1,99.4,34.146a9.954,9.954,0,0,1-.244,4.463,14.3,14.3,0,0,1-1.712,3.79,12.054,12.054,0,0,1-5.807,4.646A22.113,22.113,0,0,1,83.02,48.7ZM142.2,44.661c.184.429.306.795.489,1.162s.306.734.429,1.039a8.313,8.313,0,0,1,.428,1.1,9.866,9.866,0,0,1-3.484.306,7.092,7.092,0,0,1-2.812-.856,5.043,5.043,0,0,1-2.262-2.69c-.244-.55-.673-1.712-1.345-3.362s-1.406-3.607-2.323-5.869H113.955c-.917,2.262-1.651,4.218-2.323,5.869s-1.1,2.812-1.345,3.362a5.315,5.315,0,0,1-2.262,2.69,7.1,7.1,0,0,1-2.812.856,9.88,9.88,0,0,1-3.485-.306,8.112,8.112,0,0,1,.429-1.1c.122-.306.244-.672.428-1.039.122-.367.306-.734.489-1.162.306-.734.795-2.018,1.528-3.79.673-1.773,1.528-3.852,2.446-6.174s1.956-4.769,3-7.336,2.018-5.013,2.935-7.336,1.712-4.4,2.445-6.174,1.223-3,1.528-3.729a9.557,9.557,0,0,1,1.467-2.751,7.057,7.057,0,0,1,1.468-1.528,4.126,4.126,0,0,1,1.467-.734,9.112,9.112,0,0,1,1.284-.122,10.963,10.963,0,0,1,1.345.122,4.456,4.456,0,0,1,1.406.734,8.954,8.954,0,0,1,1.528,1.528,11.435,11.435,0,0,1,1.406,2.751c.305.734.795,1.956,1.528,3.729.672,1.773,1.528,3.852,2.445,6.174s1.956,4.768,3,7.336,2.018,5.013,2.935,7.336,1.773,4.4,2.506,6.174c.669,1.773,1.159,3.057,1.464,3.79ZM128.993,29.439c-.795-2.018-1.59-4.035-2.384-5.991-.795-1.9-1.467-3.668-2.018-5.2-.734-1.773-1.406-3.485-1.956-5.136q-1.009,2.476-2.018,5.136c-.612,1.528-1.285,3.3-2.018,5.2-.734,1.956-1.529,3.974-2.323,5.991Z"/><path class="o" d="M193.189,10.8a4.3,4.3,0,0,1,2.221-1.038,23.044,23.044,0,1,0-34.828,29.87A20.97,20.97,0,0,1,192.2,12.08,4.291,4.291,0,0,1,193.189,10.8Z"/><circle class="p" cx="3.631" cy="3.631" r="3.631" transform="translate(192.737 11.213)"/></g></g></svg>